<svg id="visual" viewBox="0 0 900 600" width="900" height="600" xmlns="http://www.w3.org/2000/svg" xmlns:xlink="http://www.w3.org/1999/xlink" version="1.1"><path d="M0 169L16.7 177C33.3 185 66.7 201 100 200C133.3 199 166.7 181 200 158C233.3 135 266.7 107 300 96C333.3 85 366.7 91 400 89C433.3 87 466.7 77 500 79C533.3 81 566.7 95 600 106C633.3 117 666.7 125 700 124C733.3 123 766.7 113 800 111C833.3 109 866.7 115 883.3 118L900 121L900 0L883.3 0C866.7 0 833.3 0 800 0C766.7 0 733.3 0 700 0C666.7 0 633.3 0 600 0C566.7 0 533.3 0 500 0C466.7 0 433.3 0 400 0C366.7 0 333.3 0 300 0C266.7 0 233.3 0 200 0C166.7 0 133.3 0 100 0C66.7 0 33.3 0 16.7 0L0 0Z" fill="#6f66ff"></path><path d="M0 193L16.7 211C33.3 229 66.7 265 100 272C133.3 279 166.7 257 200 232C233.3 207 266.7 179 300 169C333.3 159 366.7 167 400 158C433.3 149 466.7 123 500 123C533.3 123 566.7 149 600 165C633.3 181 666.7 187 700 184C733.3 181 766.7 169 800 173C833.3 177 866.7 197 883.3 207L900 217L900 119L883.3 116C866.7 113 833.3 107 800 109C766.7 111 733.3 121 700 122C666.7 123 633.3 115 600 104C566.7 93 533.3 79 500 77C466.7 75 433.3 85 400 87C366.7 89 333.3 83 300 94C266.7 105 233.3 133 200 156C166.7 179 133.3 197 100 198C66.7 199 33.3 183 16.7 175L0 167Z" fill="#5349ff"></path><path d="M0 289L16.7 296C33.3 303 66.7 317 100 322C133.3 327 166.7 323 200 311C233.3 299 266.7 279 300 272C333.3 265 366.7 271 400 254C433.3 237 466.7 197 500 189C533.3 181 566.7 205 600 219C633.3 233 666.7 237 700 240C733.3 243 766.7 245 800 254C833.3 263 866.7 279 883.3 287L900 295L900 215L883.3 205C866.7 195 833.3 175 800 171C766.7 167 733.3 179 700 182C666.7 185 633.3 179 600 163C566.7 147 533.3 121 500 121C466.7 121 433.3 147 400 156C366.7 165 333.3 157 300 167C266.7 177 233.3 205 200 230C166.7 255 133.3 277 100 270C66.7 263 33.3 227 16.7 209L0 191Z" fill="#2d25ff"></path><path d="M0 343L16.7 353C33.3 363 66.7 383 100 387C133.3 391 166.7 379 200 364C233.3 349 266.7 331 300 330C333.3 329 366.7 345 400 330C433.3 315 466.7 269 500 259C533.3 249 566.7 275 600 288C633.3 301 666.7 301 700 306C733.3 311 766.7 321 800 324C833.3 327 866.7 323 883.3 321L900 319L900 293L883.3 285C866.7 277 833.3 261 800 252C766.7 243 733.3 241 700 238C666.7 235 633.3 231 600 217C566.7 203 533.3 179 500 187C466.7 195 433.3 235 400 252C366.7 269 333.3 263 300 270C266.7 277 233.3 297 200 309C166.7 321 133.3 325 100 320C66.7 315 33.3 301 16.7 294L0 287Z" fill="#0005f1"></path><path d="M0 451L16.7 452C33.3 453 66.7 455 100 461C133.3 467 166.7 477 200 475C233.3 473 266.7 459 300 444C333.3 429 366.7 413 400 397C433.3 381 466.7 365 500 368C533.3 371 566.7 393 600 408C633.3 423 666.7 431 700 423C733.3 415 766.7 391 800 382C833.3 373 866.7 379 883.3 382L900 385L900 317L883.3 319C866.7 321 833.3 325 800 322C766.7 319 733.3 309 700 304C666.7 299 633.3 299 600 286C566.7 273 533.3 247 500 257C466.7 267 433.3 313 400 328C366.7 343 333.3 327 300 328C266.7 329 233.3 347 200 362C166.7 377 133.3 389 100 385C66.7 381 33.3 361 16.7 351L0 341Z" fill="#000bd6"></path><path d="M0 601L16.7 601C33.3 601 66.7 601 100 601C133.3 601 166.7 601 200 601C233.3 601 266.7 601 300 601C333.3 601 366.7 601 400 601C433.3 601 466.7 601 500 601C533.3 601 566.7 601 600 601C633.3 601 666.7 601 700 601C733.3 601 766.7 601 800 601C833.3 601 866.7 601 883.3 601L900 601L900 383L883.3 380C866.7 377 833.3 371 800 380C766.7 389 733.3 413 700 421C666.7 429 633.3 421 600 406C566.7 391 533.3 369 500 366C466.7 363 433.3 379 400 395C366.7 411 333.3 427 300 442C266.7 457 233.3 471 200 473C166.7 475 133.3 465 100 459C66.7 453 33.3 451 16.7 450L0 449Z" fill="#000ebc"></path></svg>